<svg xmlns="http://www.w3.org/2000/svg" viewBox="0 0 512 512">
  <rect width="512" height="512" rx="90" fill="#000"/>
  <path fill="#00ff88" d="M336.5 56C369.2 56 396 82.8 396 115.5v281c0 32.7-26.8 59.5-59.5 59.5h-161c-32.7 0-59.5-26.8-59.5-59.5v-281C116 82.8 142.8 56 175.5 56h161zM254.5 166c-17.3 0-32 3.8-44.1 11.5-12 7.6-21.2 18.2-27.5 31.8-6.3 13.6-9.4 29.4-9.4 47.4 0 18 3.1 33.8 9.4 47.4 1.8 3.9 3.8 7.5 6.1 10.9l-16.5 18.2 15.3 13.7 15.1-16.5c2.4 2 5 3.8 7.7 5.5 12.1 7.6 26.8 11.5 44.1 11.5 17.4 0 32.1-3.8 44.2-11.5s21.5-18.2 27.8-31.8c7.1-13.6 10.6-29.4 10.6-47.4 0-18-3.5-33.8-10.6-47.4-1.5-3.2-3.2-6.2-5-9.1l17.7-19.5-15.3-13.7-15.8 17.4c-2.8-2.5-5.9-4.8-9.2-7-12.1-7.6-26.8-11.5-44.2-11.5zm50.6 51.2c.4.9.8 1.8 1.2 2.7 4.3 10.4 6.5 22.6 6.5 36.4 0 13.8-2.2 26-6.5 36.4-4.3 10.5-10.7 18.7-19.3 24.5-8.6 5.9-19.3 8.8-32.2 8.7-13 0-23.8-3-32.5-8.8-1.7-1.2-3.3-2.5-4.9-3.8l87.9-96.5zm-50.6-33c13 .1 23.8 3.1 32.5 8.9 2.3 1.6 4.5 3.3 6.5 5.2L205.9 286c-.8-1.5-1.5-3.1-2.2-4.7-4.3-10.4-6.4-22.6-6.3-36.4.1-13.8 2.3-26 6.5-36.4 4.3-10.5 10.7-18.7 19.2-24.5 8.6-5.9 19.3-8.8 32.2-8.8z"/>
</svg>
